0
SECTION
2
HEADER
9
$INSUNITS
70
4
9
$ACADVER
1
AC1014
9
$HANDSEED
5
FFFF
0
ENDSEC
0
SECTION
2
TABLES
0
TABLE
2
VPORT
5
8
100
AcDbSymbolTable
0
ENDTAB
0
TABLE
2
LTYPE
5
5
100
AcDbSymbolTable
0
LTYPE
5
14
100
AcDbSymbolTableRecord
100
AcDbLinetypeTableRecord
2
BYBLOCK
70
0
0
LTYPE
5
15
100
AcDbSymbolTableRecord
100
AcDbLinetypeTableRecord
2
BYLAYER
70
0
0
ENDTAB
0
TABLE
2
LAYER
5
2
100
AcDbSymbolTable
70
2
0
LAYER
5
50
100
AcDbSymbolTableRecord
100
AcDbLayerTableRecord
2
0
70
0
6
CONTINUOUS
0
ENDTAB
0
TABLE
2
STYLE
5
3
100
AcDbSymbolTable
70
1
0
STYLE
5
11
100
AcDbSymbolTableRecord
100
AcDbTextStyleTableRecord
2
STANDARD
70
0
0
ENDTAB
0
TABLE
2
VIEW
5
6
100
AcDbSymbolTable
70
0
0
ENDTAB
0
TABLE
2
UCS
5
7
100
AcDbSymbolTable
70
0
0
ENDTAB
0
TABLE
2
APPID
5
9
100
AcDbSymbolTable
70
2
0
APPID
5
12
100
AcDbSymbolTableRecord
100
AcDbRegAppTableRecord
2
ACAD
70
0
0
ENDTAB
0
TABLE
2
DIMSTYLE
5
A
100
AcDbSymbolTable
70
1
0
ENDTAB
0
TABLE
2
BLOCK_RECORD
5
1
100
AcDbSymbolTable
70
1
0
BLOCK_RECORD
5
1F
100
AcDbSymbolTableRecord
100
AcDbBlockTableRecord
2
*MODEL_SPACE
0
BLOCK_RECORD
5
1B
100
AcDbSymbolTableRecord
100
AcDbBlockTableRecord
2
*PAPER_SPACE
0
ENDTAB
0
ENDSEC
0
SECTION
2
BLOCKS
0
BLOCK
5
20
100
AcDbEntity
100
AcDbBlockBegin
2
*MODEL_SPACE
0
ENDBLK
5
21
100
AcDbEntity
100
AcDbBlockEnd
0
BLOCK
5
1C
100
AcDbEntity
100
AcDbBlockBegin
2
*PAPER_SPACE
0
ENDBLK
5
1D
100
AcDbEntity
100
AcDbBlockEnd
0
ENDSEC
0
SECTION
2
ENTITIES
0
CIRCLE
5
100
100
AcDbEntity
8
0
100
AcDbCircle
10
-73.266796466288781
20
27.244510580680913
30
0
40
2.5
210
1.4750418677397134e-125
220
-9.3418321524355479e-204
230
1
0
CIRCLE
5
101
100
AcDbEntity
8
0
100
AcDbCircle
10
-12.766796466288852
20
27.244510580680963
30
0
40
2.5
210
1.4750418677397134e-125
220
-9.3418321524355479e-204
230
1
0
LWPOLYLINE
5
102
100
AcDbEntity
8
0
100
AcDbPolyline
90
4
70
1
43
0.0
10
-92.166796466288829
20
-12.798654251257922
10
-92.166796466288829
20
-17.798654251257922
10
-94.966796466288841
20
-17.798654251257922
10
-94.966796466288841
20
-12.798654251257924
0
LWPOLYLINE
5
103
100
AcDbEntity
8
0
100
AcDbPolyline
90
4
70
1
43
0.0
10
-16.51679646628892
20
-10.523654251257945
10
-16.51679646628893
20
-20.073654251257892
10
-19.516796466288937
20
-20.073654251257899
10
-19.516796466288927
20
-10.523654251257948
0
LWPOLYLINE
5
104
100
AcDbEntity
8
0
100
AcDbPolyline
90
4
70
1
43
0.0
10
-1.3667964662888528
20
-20.073654251257878
10
-4.3667964662888599
20
-20.073654251257885
10
-4.3667964662888492
20
-10.523654251257938
10
-1.3667964662888421
20
-10.523654251257934
0
LWPOLYLINE
5
105
100
AcDbEntity
8
0
100
AcDbPolyline
90
4
70
1
43
0.0
10
-66.516796466288966
20
-10.523654251257842
10
-66.516796466288952
20
-20.09254495269402
10
-69.516796466288952
20
-20.092544952694013
10
-69.516796466288952
20
-10.523654251257843
0
LWPOLYLINE
5
106
100
AcDbEntity
8
0
100
AcDbPolyline
90
4
70
1
43
0.0
10
-84.666796466288844
20
-10.523654251257854
10
-81.666796466288844
20
-10.523654251257851
10
-81.666855943311901
20
-20.092544952694027
10
-84.666796466288844
20
-20.073654251257942
0
LWPOLYLINE
5
107
100
AcDbEntity
8
0
100
AcDbPolyline
90
4
70
1
43
0.0
10
8.933203533711243
20
-17.798654251257982
10
6.1332035337111606
20
-17.798654251257993
10
6.133203533711173
20
-12.798654251257993
10
8.9332035337112554
20
-12.798654251257982
0
LWPOLYLINE
5
108
100
AcDbEntity
8
0
100
AcDbPolyline
90
4
70
1
43
0.0
10
-18.541796466288737
20
-3.2809572754761169
10
-18.541796466288741
20
-0.28095727547603977
10
-8.991796466288811
20
-0.28095727547603477
10
-8.9917964662888039
20
-3.280957275476033
0
LWPOLYLINE
5
109
100
AcDbEntity
8
0
100
AcDbPolyline
90
4
70
1
43
0.0
10
-38.041796466288858
20
-3.2809572754761245
10
-38.041796466288865
20
-0.28095727547605087
10
-28.491796466288768
20
-0.28095727547604532
10
-28.491796466288761
20
-3.2809572754761165
0
LWPOLYLINE
5
110
100
AcDbEntity
8
0
100
AcDbPolyline
90
4
70
1
43
0.0
10
-57.541796466288808
20
-3.2809572754761458
10
-57.541796466288808
20
-0.28095727547606197
10
-47.991796466288854
20
-0.28095727547605698
10
-47.991796466288854
20
-3.2809572754761329
0
LWPOLYLINE
5
111
100
AcDbEntity
8
0
100
AcDbPolyline
90
48
70
1
43
0.0
10
-10.334896466288793
20
34.988142724523932
10
-10.334896466288793
20
31.999042724523967
10
-19.501196466288842
20
31.999042724523967
10
-19.501196466288842
20
34.988142724523925
10
-29.06739646628878
20
34.988142724523925
10
-29.06739646628878
20
31.99904272452396
10
-38.233696466288826
20
31.99904272452396
10
-38.233696466288826
20
34.988142724523925
10
-47.799896466288835
20
34.988142724523925
10
-47.799896466288835
20
31.99904272452396
10
-56.966196466288885
20
31.99904272452396
10
-56.966196466288885
20
34.988142724523925
10
-66.532396466288816
20
34.988142724523925
10
-66.532396466288816
20
31.999042724523949
10
-75.698696466288865
20
31.999042724523949
10
-75.698696466288865
20
34.988142724523925
10
-103.26679646628878
20
34.988142724523918
10
-103.26679646628877
20
-0.28095727547605254
10
-84.666796466288872
20
-0.28095727547605087
10
-84.666796466288872
20
-3.1986542512580156
10
-103.26679646628877
20
-3.1986542512580223
10
-103.26679646628878
20
-27.398654251258044
10
-84.666796466288844
20
-27.39865425125803
10
-84.666796466288844
20
-30.398654251258037
10
-77.041796466288858
20
-30.398654251258034
10
-77.041796466288858
20
-27.398654251258026
10
-67.491796466288832
20
-27.398654251258016
10
-67.491796466288832
20
-30.398654251258023
10
-57.541796466288886
20
-30.398654251258009
10
-57.541796466288886
20
-27.398654251258002
10
-47.991796466288854
20
-27.398654251257959
10
-47.991796466288854
20
-30.398654251258002
10
-38.041796466288844
20
-30.398654251258002
10
-38.041796466288844
20
-27.398654251257959
10
-28.491796466288832
20
-27.398654251257952
10
-28.491796466288832
20
-30.398654251257994
10
-18.541796466288961
20
-30.398654251257959
10
-18.541796466288964
20
-27.398654251257952
10
-8.9917964662888767
20
-27.398654251257941
10
-8.9917964662888732
20
-30.398654251257948
10
-1.3667964662888266
20
-30.398654251257938
10
-1.3667964662888474
20
-27.398654251257931
10
17.233203533711148
20
-27.398654251257916
10
17.233203533711148
20
-3.1986542512579419
10
-1.3667964662888465
20
-3.1986542512579486
10
-1.3667964662889176
20
-0.28095727547603089
10
17.233203533711148
20
-0.28095727547603089
10
17.233203533711148
20
34.988142724523932
0
ENDSEC
0
SECTION
2
OBJECTS
0
DICTIONARY
5
C
100
AcDbDictionary
3
ACAD_GROUP
350
D
3
ACAD_MLINESTYLE
350
17
0
DICTIONARY
5
D
100
AcDbDictionary
0
DICTIONARY
5
1A
330
C
100
AcDbDictionary
0
DICTIONARY
5
17
100
AcDbDictionary
0
ENDSEC
0
EOF
