0
SECTION
2
HEADER
9
$INSUNITS
70
4
9
$ACADVER
1
AC1014
9
$HANDSEED
5
FFFF
0
ENDSEC
0
SECTION
2
TABLES
0
TABLE
2
VPORT
5
8
100
AcDbSymbolTable
0
ENDTAB
0
TABLE
2
LTYPE
5
5
100
AcDbSymbolTable
0
LTYPE
5
14
100
AcDbSymbolTableRecord
100
AcDbLinetypeTableRecord
2
BYBLOCK
70
0
0
LTYPE
5
15
100
AcDbSymbolTableRecord
100
AcDbLinetypeTableRecord
2
BYLAYER
70
0
0
ENDTAB
0
TABLE
2
LAYER
5
2
100
AcDbSymbolTable
70
2
0
LAYER
5
50
100
AcDbSymbolTableRecord
100
AcDbLayerTableRecord
2
0
70
0
6
CONTINUOUS
0
ENDTAB
0
TABLE
2
STYLE
5
3
100
AcDbSymbolTable
70
1
0
STYLE
5
11
100
AcDbSymbolTableRecord
100
AcDbTextStyleTableRecord
2
STANDARD
70
0
0
ENDTAB
0
TABLE
2
VIEW
5
6
100
AcDbSymbolTable
70
0
0
ENDTAB
0
TABLE
2
UCS
5
7
100
AcDbSymbolTable
70
0
0
ENDTAB
0
TABLE
2
APPID
5
9
100
AcDbSymbolTable
70
2
0
APPID
5
12
100
AcDbSymbolTableRecord
100
AcDbRegAppTableRecord
2
ACAD
70
0
0
ENDTAB
0
TABLE
2
DIMSTYLE
5
A
100
AcDbSymbolTable
70
1
0
ENDTAB
0
TABLE
2
BLOCK_RECORD
5
1
100
AcDbSymbolTable
70
1
0
BLOCK_RECORD
5
1F
100
AcDbSymbolTableRecord
100
AcDbBlockTableRecord
2
*MODEL_SPACE
0
BLOCK_RECORD
5
1B
100
AcDbSymbolTableRecord
100
AcDbBlockTableRecord
2
*PAPER_SPACE
0
ENDTAB
0
ENDSEC
0
SECTION
2
BLOCKS
0
BLOCK
5
20
100
AcDbEntity
100
AcDbBlockBegin
2
*MODEL_SPACE
0
ENDBLK
5
21
100
AcDbEntity
100
AcDbBlockEnd
0
BLOCK
5
1C
100
AcDbEntity
100
AcDbBlockBegin
2
*PAPER_SPACE
0
ENDBLK
5
1D
100
AcDbEntity
100
AcDbBlockEnd
0
ENDSEC
0
SECTION
2
ENTITIES
0
LWPOLYLINE
5
100
100
AcDbEntity
8
0
100
AcDbPolyline
90
52
70
1
43
0.0
10
-47.799896466288835
20
34.988142724523932
10
-38.233696466288826
20
34.988142724523932
10
-38.233696466288826
20
31.999042724523964
10
-29.06739646628878
20
31.999042724523964
10
-29.06739646628878
20
34.988142724523932
10
-19.501196466288842
20
34.988142724523932
10
-19.501196466288842
20
31.999042724523971
10
-10.334896466288793
20
31.999042724523971
10
-10.334896466288793
20
34.988142724523932
10
14.233203533711176
20
34.988142724523932
10
14.233203533711178
20
43.76844272452395
10
17.233203533711222
20
43.76844272452395
10
17.233203533711219
20
53.33464272452396
10
14.233203533711176
20
53.33464272452396
10
14.233203533711174
20
59.919042724523948
10
8.3976035337111945
20
59.919042724523948
10
8.3976035337111963
20
56.919042724523976
10
-0.76869646628878185
20
56.919042724523976
10
-0.76869646628878296
20
59.919042724523948
10
-10.334896466288793
20
59.919042724523948
10
-10.334896466288793
20
56.919042724523976
10
-19.501196466288842
20
56.919042724523976
10
-19.501196466288842
20
59.919042724523948
10
-29.06739646628878
20
59.919042724523941
10
-29.06739646628878
20
56.919042724523969
10
-38.233696466288826
20
56.919042724523969
10
-38.233696466288826
20
59.919042724523941
10
-47.799896466288835
20
59.919042724523941
10
-47.799896466288835
20
56.919042724523969
10
-56.966196466288885
20
56.919042724523969
10
-56.966196466288885
20
59.919042724523941
10
-66.532396466288816
20
59.919042724523933
10
-66.532396466288816
20
56.919042724523962
10
-75.698696466288865
20
56.919042724523962
10
-75.698696466288865
20
59.919042724523933
10
-85.264896466288889
20
59.919042724523941
10
-85.264896466288889
20
56.919042724523969
10
-94.431196466288867
20
56.919042724523969
10
-94.431196466288867
20
59.919042724524012
10
-100.26679646628878
20
59.919042724524004
10
-100.26679646628878
20
53.334642724524016
10
-103.26679646628882
20
53.334642724524016
10
-103.26679646628882
20
43.768442724524007
10
-100.26679646628878
20
43.768442724524007
10
-100.26679646628878
20
34.988142724523918
10
-75.698696466288865
20
34.988142724523932
10
-75.698696466288865
20
31.999042724523953
10
-66.532396466288816
20
31.999042724523953
10
-66.532396466288816
20
34.988142724523932
10
-56.966196466288885
20
34.988142724523932
10
-56.966196466288885
20
31.999042724523964
10
-47.799896466288835
20
31.999042724523964
0
ENDSEC
0
SECTION
2
OBJECTS
0
DICTIONARY
5
C
100
AcDbDictionary
3
ACAD_GROUP
350
D
3
ACAD_MLINESTYLE
350
17
0
DICTIONARY
5
D
100
AcDbDictionary
0
DICTIONARY
5
1A
330
C
100
AcDbDictionary
0
DICTIONARY
5
17
100
AcDbDictionary
0
ENDSEC
0
EOF
