0
SECTION
2
HEADER
9
$INSUNITS
70
4
9
$ACADVER
1
AC1014
9
$HANDSEED
5
FFFF
0
ENDSEC
0
SECTION
2
TABLES
0
TABLE
2
VPORT
5
8
100
AcDbSymbolTable
0
ENDTAB
0
TABLE
2
LTYPE
5
5
100
AcDbSymbolTable
0
LTYPE
5
14
100
AcDbSymbolTableRecord
100
AcDbLinetypeTableRecord
2
BYBLOCK
70
0
0
LTYPE
5
15
100
AcDbSymbolTableRecord
100
AcDbLinetypeTableRecord
2
BYLAYER
70
0
0
ENDTAB
0
TABLE
2
LAYER
5
2
100
AcDbSymbolTable
70
2
0
LAYER
5
50
100
AcDbSymbolTableRecord
100
AcDbLayerTableRecord
2
0
70
0
6
CONTINUOUS
0
ENDTAB
0
TABLE
2
STYLE
5
3
100
AcDbSymbolTable
70
1
0
STYLE
5
11
100
AcDbSymbolTableRecord
100
AcDbTextStyleTableRecord
2
STANDARD
70
0
0
ENDTAB
0
TABLE
2
VIEW
5
6
100
AcDbSymbolTable
70
0
0
ENDTAB
0
TABLE
2
UCS
5
7
100
AcDbSymbolTable
70
0
0
ENDTAB
0
TABLE
2
APPID
5
9
100
AcDbSymbolTable
70
2
0
APPID
5
12
100
AcDbSymbolTableRecord
100
AcDbRegAppTableRecord
2
ACAD
70
0
0
ENDTAB
0
TABLE
2
DIMSTYLE
5
A
100
AcDbSymbolTable
70
1
0
ENDTAB
0
TABLE
2
BLOCK_RECORD
5
1
100
AcDbSymbolTable
70
1
0
BLOCK_RECORD
5
1F
100
AcDbSymbolTableRecord
100
AcDbBlockTableRecord
2
*MODEL_SPACE
0
BLOCK_RECORD
5
1B
100
AcDbSymbolTableRecord
100
AcDbBlockTableRecord
2
*PAPER_SPACE
0
ENDTAB
0
ENDSEC
0
SECTION
2
BLOCKS
0
BLOCK
5
20
100
AcDbEntity
100
AcDbBlockBegin
2
*MODEL_SPACE
0
ENDBLK
5
21
100
AcDbEntity
100
AcDbBlockEnd
0
BLOCK
5
1C
100
AcDbEntity
100
AcDbBlockBegin
2
*PAPER_SPACE
0
ENDBLK
5
1D
100
AcDbEntity
100
AcDbBlockEnd
0
ENDSEC
0
SECTION
2
ENTITIES
0
CIRCLE
5
100
100
AcDbEntity
8
0
100
AcDbCircle
10
42.339493824062899
20
-74.478592560544229
30
0
40
1.2997748813861953
210
0
220
-0
230
1
0
CIRCLE
5
101
100
AcDbEntity
8
0
100
AcDbCircle
10
-7.8222795457722167
20
-74.478145154682323
30
0
40
1.3000633943129358
210
0
220
-0
230
1
0
CIRCLE
5
102
100
AcDbEntity
8
0
100
AcDbCircle
10
-7.8220510454388439
20
-132.47808722417014
30
0
40
1.3499003025737355
210
0
220
-0
230
1
0
CIRCLE
5
103
100
AcDbEntity
8
0
100
AcDbCircle
10
42.339449352699525
20
-132.47827304451727
30
0
40
1.3499602440478409
210
0
220
-0
230
1
0
CIRCLE
5
104
100
AcDbEntity
8
0
100
AcDbCircle
10
63.856565129073715
20
-89.96020639926796
30
0
40
1.5871118592404176
210
0
220
-0
230
1
0
CIRCLE
5
105
100
AcDbEntity
8
0
100
AcDbCircle
10
96.869209755794557
20
-142.02993752810701
30
0
40
1.5817348127577979
210
0
220
-0
230
1
0
CIRCLE
5
106
100
AcDbEntity
8
0
100
AcDbCircle
10
48.616712244095964
20
-140.76033289914685
30
0
40
1.5861672942088223
210
0
220
-0
230
1
0
LWPOLYLINE
5
107
100
AcDbEntity
8
0
100
AcDbPolyline
90
4
70
1
43
0.0
10
4.3667964662890313
20
-124.8447419657744
10
1.3667964662889176
20
-124.8447419657744
10
1.3667964662889176
20
-115.29474196577448
10
4.3667964662890313
20
-115.29474196577448
0
LWPOLYLINE
5
108
100
AcDbEntity
8
0
100
AcDbPolyline
90
4
70
1
43
0.0
10
4.3667964662890313
20
-134.79474196577436
10
4.3667964662890313
20
-144.34474196577438
10
1.3667964662889176
20
-144.34474196577438
10
1.3667964662889176
20
-134.79474196577436
0
LWPOLYLINE
5
109
100
AcDbEntity
8
0
100
AcDbPolyline
90
4
70
1
43
0.0
10
84.666796466288915
20
-85.844741965774446
10
81.666796466288858
20
-85.844741965774446
10
81.666796466288858
20
-76.294741965774449
10
84.666796466288915
20
-76.294741965774449
0
LWPOLYLINE
5
110
100
AcDbEntity
8
0
100
AcDbPolyline
90
4
70
1
43
0.0
10
81.666796466288858
20
-115.29474196577448
10
84.666796466288915
20
-115.29474196577448
10
84.666796466288915
20
-124.8447419657744
10
81.666796466288858
20
-124.8447419657744
0
LWPOLYLINE
5
111
100
AcDbEntity
8
0
100
AcDbPolyline
90
4
70
1
43
0.0
10
4.3667964662890313
20
-46.84474196577451
10
1.3667964662889176
20
-46.84474196577451
10
1.3667964662889176
20
-37.29474196577457
10
4.3667964662890313
20
-37.29474196577457
0
LWPOLYLINE
5
112
100
AcDbEntity
8
0
100
AcDbPolyline
90
4
70
1
43
0.0
10
66.516796466288852
20
-144.34474196577438
10
66.516796466288852
20
-134.79474196577436
10
69.516796466288824
20
-134.79474196577436
10
69.516796466288824
20
-144.34474196577438
0
LWPOLYLINE
5
113
100
AcDbEntity
8
0
100
AcDbPolyline
90
4
70
1
43
0.0
10
84.666796466288915
20
-134.79474196577436
10
84.666796466288915
20
-144.34474196577438
10
81.666796466288858
20
-144.34474196577438
10
81.666796466288858
20
-134.79474196577436
0
LWPOLYLINE
5
114
100
AcDbEntity
8
0
100
AcDbPolyline
90
4
70
1
43
0.0
10
4.3667964662890313
20
-105.34474196577446
10
1.3667964662889176
20
-105.34474196577446
10
1.3667964662889176
20
-95.794741965774492
10
4.3667964662890313
20
-95.794741965774492
0
LWPOLYLINE
5
115
100
AcDbEntity
8
0
100
AcDbPolyline
90
4
70
1
43
0.0
10
69.516796466288824
20
-76.294741965774449
10
69.516796466288824
20
-85.844741965774446
10
66.516796466288852
20
-85.844741965774446
10
66.516796466288852
20
-76.294741965774449
0
LWPOLYLINE
5
116
100
AcDbEntity
8
0
100
AcDbPolyline
90
4
70
1
43
0.0
10
69.516796466288824
20
-37.29474196577457
10
69.516796466288824
20
-46.84474196577451
10
66.516796466288852
20
-46.84474196577451
10
66.516796466288852
20
-37.29474196577457
0
LWPOLYLINE
5
117
100
AcDbEntity
8
0
100
AcDbPolyline
90
4
70
1
43
0.0
10
84.666796466288915
20
-37.294741965774563
10
84.666796466288915
20
-46.844741965774503
10
81.666796466288858
20
-46.844741965774503
10
81.666796466288858
20
-37.294741965774563
0
LWPOLYLINE
5
118
100
AcDbEntity
8
0
100
AcDbPolyline
90
4
70
1
43
0.0
10
16.516796466288923
20
-105.34474196577446
10
16.516796466288923
20
-95.794741965774492
10
19.516796466288895
20
-95.794741965774492
10
19.516796466288895
20
-105.34474196577446
0
LWPOLYLINE
5
119
100
AcDbEntity
8
0
100
AcDbPolyline
90
4
70
1
43
0.0
10
66.516796466288852
20
-105.34474196577446
10
66.516796466288852
20
-95.794741965774492
10
69.516796466288824
20
-95.794741965774492
10
69.516796466288824
20
-105.34474196577446
0
LWPOLYLINE
5
120
100
AcDbEntity
8
0
100
AcDbPolyline
90
8
70
1
43
0.0
10
77.341796466288812
20
-162.06974196577437
42
0.41421356237309115
10
79.341796466288855
20
-160.06974196577437
10
79.341796466288841
20
-156.56974196577428
42
0.41421356237310936
10
77.341796466288812
20
-154.5697419657744
10
73.841796466288869
20
-154.5697419657744
42
0.41421356237310542
10
71.841796466288841
20
-156.56974196577428
10
71.841796466288827
20
-160.06974196577437
42
0.41421356237311452
10
73.841796466288869
20
-162.06974196577443
0
LWPOLYLINE
5
121
100
AcDbEntity
8
0
100
AcDbPolyline
90
4
70
1
43
0.0
10
19.516796466288895
20
-46.84474196577451
10
16.516796466288923
20
-46.84474196577451
10
16.516796466288923
20
-37.29474196577457
10
19.516796466288895
20
-37.29474196577457
0
LWPOLYLINE
5
122
100
AcDbEntity
8
0
100
AcDbPolyline
90
4
70
1
43
0.0
10
19.516796466288895
20
-76.294741965774449
10
19.516796466288895
20
-85.844741965774446
10
16.516796466288923
20
-85.844741965774446
10
16.516796466288923
20
-76.294741965774449
0
LWPOLYLINE
5
123
100
AcDbEntity
8
0
100
AcDbPolyline
90
4
70
1
43
0.0
10
69.516796466288824
20
-66.34474196577446
10
66.516796466288852
20
-66.34474196577446
10
66.516796466288852
20
-56.794741965774506
10
69.516796466288824
20
-56.794741965774506
0
LWPOLYLINE
5
124
100
AcDbEntity
8
0
100
AcDbPolyline
90
4
70
1
43
0.0
10
19.516796466288895
20
-144.34474196577438
10
16.516796466288923
20
-144.34474196577438
10
16.516796466288923
20
-134.79474196577436
10
19.516796466288895
20
-134.79474196577436
0
LWPOLYLINE
5
125
100
AcDbEntity
8
0
100
AcDbPolyline
90
4
70
1
43
0.0
10
16.516796466288923
20
-124.8447419657744
10
16.516796466288923
20
-115.29474196577448
10
19.516796466288895
20
-115.29474196577448
10
19.516796466288895
20
-124.8447419657744
0
LWPOLYLINE
5
126
100
AcDbEntity
8
0
100
AcDbPolyline
90
4
70
1
43
0.0
10
81.666796466288858
20
-105.34474196577446
10
81.666796466288858
20
-95.794741965774492
10
84.666796466288915
20
-95.794741965774492
10
84.666796466288915
20
-105.34474196577446
0
LWPOLYLINE
5
127
100
AcDbEntity
8
0
100
AcDbPolyline
90
4
70
1
43
0.0
10
4.3667964662890313
20
-66.34474196577446
10
1.3667964662889176
20
-66.34474196577446
10
1.3667964662889176
20
-56.794741965774506
10
4.3667964662890313
20
-56.794741965774506
0
LWPOLYLINE
5
128
100
AcDbEntity
8
0
100
AcDbPolyline
90
8
70
1
43
0.0
10
12.191796466288878
20
-162.06974196577443
42
0.41421356237310314
10
14.19179646628889
20
-160.06974196577437
10
14.19179646628891
20
-156.56974196577431
42
0.41421356237310641
10
12.191796466288878
20
-154.56974196577443
10
8.6917964662889347
20
-154.56974196577443
42
0.41421356237310564
10
6.6917964662889062
20
-156.56974196577431
10
6.6917964662889018
20
-160.06974196577437
42
0.41421356237310369
10
8.6917964662889347
20
-162.06974196577443
0
LWPOLYLINE
5
129
100
AcDbEntity
8
0
100
AcDbPolyline
90
4
70
1
43
0.0
10
4.3667964662890313
20
-85.844741965774446
10
1.3667964662889176
20
-85.844741965774446
10
1.3667964662889176
20
-76.294741965774449
10
4.3667964662890313
20
-76.294741965774449
0
LWPOLYLINE
5
130
100
AcDbEntity
8
0
100
AcDbPolyline
90
4
70
1
43
0.0
10
16.516796466288923
20
-56.794741965774506
10
19.516796466288895
20
-56.794741965774506
10
19.516796466288895
20
-66.34474196577446
10
16.516796466288923
20
-66.34474196577446
0
CIRCLE
5
131
100
AcDbEntity
8
0
100
AcDbCircle
10
91.796119406099621
20
-89.960590756903684
30
0
40
1.5873085696148337
210
0
220
-0
230
1
0
LWPOLYLINE
5
132
100
AcDbEntity
8
0
100
AcDbPolyline
90
4
70
1
43
0.0
10
66.516796466288852
20
-115.29474196577448
10
69.516796466288824
20
-115.29474196577448
10
69.516796466288824
20
-124.8447419657744
10
66.516796466288852
20
-124.8447419657744
0
LWPOLYLINE
5
133
100
AcDbEntity
8
0
100
AcDbPolyline
90
4
70
1
43
0.0
10
84.666796466288915
20
-56.794741965774506
10
84.666796466288915
20
-66.34474196577446
10
81.666796466288858
20
-66.34474196577446
10
81.666796466288858
20
-56.794741965774506
0
LWPOLYLINE
5
134
100
AcDbEntity
8
0
100
AcDbPolyline
90
60
70
1
43
0.0
10
-17.233203533711148
20
-15.719741965774539
10
-17.233203533711148
20
-165.91974196577436
10
1.3667964662889176
20
-165.91974196577436
10
1.3667964662889176
20
-154.29474196577434
10
4.3667964662890313
20
-154.29474196577434
10
4.3667964662890313
20
-162.91974196577431
10
8.7917964662889858
20
-162.91974196577431
10
8.7917964662889858
20
-165.91974196577436
10
18.741796466289031
20
-165.91974196577436
10
18.741796466289031
20
-162.91974196577431
10
16.516796466288923
20
-162.91974196577431
10
16.516796466288923
20
-154.29474196577434
10
19.516796466288895
20
-154.29474196577434
10
19.516796466288895
20
-162.91974196577431
10
28.291796466289014
20
-162.91974196577431
10
28.291796466289014
20
-165.91974196577436
10
38.241796466288925
20
-165.91974196577436
10
38.241796466288925
20
-162.91974196577431
10
47.791796466288901
20
-162.91974196577431
10
47.791796466288901
20
-165.91974196577436
10
57.741796466288882
20
-165.91974196577436
10
57.741796466288882
20
-162.91974196577431
10
66.516796466288852
20
-162.91974196577431
10
66.516796466288852
20
-154.29474196577434
10
69.516796466288824
20
-154.29474196577434
10
69.516796466288824
20
-162.91974196577431
10
67.291796466288858
20
-162.91974196577431
10
67.291796466288858
20
-165.91974196577436
10
77.241796466288903
20
-165.91974196577436
10
77.241796466288903
20
-162.91974196577431
10
81.666796466288858
20
-162.91974196577431
10
81.666796466288858
20
-154.29474196577434
10
84.666796466288915
20
-154.29474196577434
10
84.666796466288915
20
-165.91974196577436
10
103.26679646628878
20
-165.91974196577436
10
103.26679646628878
20
-15.719741965774539
10
84.666796466288915
20
-15.719741965774539
10
84.666796466288915
20
-27.344741965774571
10
81.666796466288858
20
-27.344741965774571
10
81.666796466288858
20
-35.294741965774577
42
-0.41421356237309631
10
79.666796466288829
20
-37.29474196577457
10
71.516796466288852
20
-37.29474196577457
42
-0.41421356237309825
10
69.516796466288824
20
-35.294741965774577
10
69.516796466288824
20
-18.719741965774549
10
57.541796466288808
20
-18.719741965774539
10
57.541796466288808
20
-15.719741965774539
10
47.991796466288854
20
-15.719741965774539
10
47.991796466288854
20
-18.719741965774539
10
38.041796466288865
20
-18.719741965774539
10
38.041796466288865
20
-15.719741965774539
10
28.491796466288768
20
-15.719741965774539
10
28.491796466288768
20
-18.719741965774539
10
18.541796466288744
20
-18.719741965774539
10
18.541796466288741
20
-15.719741965774539
10
8.991796466288811
20
-15.719741965774539
10
8.9917964662888128
20
-18.719741965774539
10
4.3667964662890313
20
-18.719741965774549
10
4.3667964662890313
20
-27.344741965774571
10
1.3667964662889176
20
-27.344741965774571
10
1.3667964662889176
20
-15.719741965774539
0
ENDSEC
0
SECTION
2
OBJECTS
0
DICTIONARY
5
C
100
AcDbDictionary
3
ACAD_GROUP
350
D
3
ACAD_MLINESTYLE
350
17
0
DICTIONARY
5
D
100
AcDbDictionary
0
DICTIONARY
5
1A
330
C
100
AcDbDictionary
0
DICTIONARY
5
17
100
AcDbDictionary
0
ENDSEC
0
EOF
