0
SECTION
2
HEADER
9
$INSUNITS
70
4
9
$ACADVER
1
AC1014
9
$HANDSEED
5
FFFF
0
ENDSEC
0
SECTION
2
TABLES
0
TABLE
2
VPORT
5
8
100
AcDbSymbolTable
0
ENDTAB
0
TABLE
2
LTYPE
5
5
100
AcDbSymbolTable
0
LTYPE
5
14
100
AcDbSymbolTableRecord
100
AcDbLinetypeTableRecord
2
BYBLOCK
70
0
0
LTYPE
5
15
100
AcDbSymbolTableRecord
100
AcDbLinetypeTableRecord
2
BYLAYER
70
0
0
ENDTAB
0
TABLE
2
LAYER
5
2
100
AcDbSymbolTable
70
2
0
LAYER
5
50
100
AcDbSymbolTableRecord
100
AcDbLayerTableRecord
2
0
70
0
6
CONTINUOUS
0
ENDTAB
0
TABLE
2
STYLE
5
3
100
AcDbSymbolTable
70
1
0
STYLE
5
11
100
AcDbSymbolTableRecord
100
AcDbTextStyleTableRecord
2
STANDARD
70
0
0
ENDTAB
0
TABLE
2
VIEW
5
6
100
AcDbSymbolTable
70
0
0
ENDTAB
0
TABLE
2
UCS
5
7
100
AcDbSymbolTable
70
0
0
ENDTAB
0
TABLE
2
APPID
5
9
100
AcDbSymbolTable
70
2
0
APPID
5
12
100
AcDbSymbolTableRecord
100
AcDbRegAppTableRecord
2
ACAD
70
0
0
ENDTAB
0
TABLE
2
DIMSTYLE
5
A
100
AcDbSymbolTable
70
1
0
ENDTAB
0
TABLE
2
BLOCK_RECORD
5
1
100
AcDbSymbolTable
70
1
0
BLOCK_RECORD
5
1F
100
AcDbSymbolTableRecord
100
AcDbBlockTableRecord
2
*MODEL_SPACE
0
BLOCK_RECORD
5
1B
100
AcDbSymbolTableRecord
100
AcDbBlockTableRecord
2
*PAPER_SPACE
0
ENDTAB
0
ENDSEC
0
SECTION
2
BLOCKS
0
BLOCK
5
20
100
AcDbEntity
100
AcDbBlockBegin
2
*MODEL_SPACE
0
ENDBLK
5
21
100
AcDbEntity
100
AcDbBlockEnd
0
BLOCK
5
1C
100
AcDbEntity
100
AcDbBlockBegin
2
*PAPER_SPACE
0
ENDBLK
5
1D
100
AcDbEntity
100
AcDbBlockEnd
0
ENDSEC
0
SECTION
2
ENTITIES
0
LWPOLYLINE
5
100
100
AcDbEntity
8
0
100
AcDbPolyline
90
68
70
1
43
0.0
10
-18.5197419657745
20
-27.39865425125803
10
-18.719741965774574
20
-27.39865425125803
10
-18.719741965774571
20
-20.092544952694027
10
-15.719741965774571
20
-20.092544952694027
10
-15.719741965774567
20
-10.523654251257856
10
-18.719741965774567
20
-10.523654251257859
10
-18.719741965774539
20
-10.415402626193959
10
-36.894741965774514
20
-10.415402626193959
10
-36.894741965774514
20
-0.29040262619400181
10
-46.84474196577456
20
-0.29040262619400026
10
-46.84474196577456
20
-3.2904026261940427
10
-56.394741965774585
20
-3.2904026261940404
10
-56.394741965774585
20
-0.29040262619399793
10
-66.344741965774588
20
-0.29040262619399576
10
-66.344741965774588
20
-3.2904026261940382
10
-75.894741965774571
20
-3.290402626194036
10
-75.894741965774571
20
-0.29040262619399348
10
-85.844741965774574
20
-0.29040262619399121
10
-85.844741965774574
20
-3.2904026261940338
10
-95.394741965774614
20
-3.2904026261940316
10
-95.394741965774614
20
-0.29040262619398904
10
-105.34474196577452
20
-0.29040262619398671
10
-105.34474196577452
20
-3.2904026261940293
10
-114.89474196577461
20
-3.2904026261940271
10
-114.89474196577461
20
-0.2904026261939846
10
-124.84474196577455
20
-0.29040262619398216
10
-124.84474196577455
20
-3.2904026261940249
10
-134.39474196577453
20
-3.2904026261940227
10
-134.39474196577453
20
-0.29040262619398016
10
-144.34474196577457
20
-0.29040262619397766
10
-144.34474196577457
20
-3.29040262619402
10
-153.89474196577456
20
-3.2904026261940182
10
-153.89474196577456
20
-0.29040262619397572
10
-162.71974196577474
20
-0.29040262619397339
10
-162.71974196577474
20
-10.415402626194002
10
-165.7197419657746
20
-10.415402626194002
10
-165.7197419657746
20
-20.365402626193976
10
-162.71974196577474
20
-20.365402626193973
10
-162.71974196577474
20
-30.490402626194001
10
-153.89474196577456
20
-30.490402626194012
10
-153.89474196577456
20
-27.490402626193969
10
-144.34474196577457
20
-27.490402626193969
10
-144.34474196577457
20
-30.490402626194012
10
-134.39474196577453
20
-30.490402626194012
10
-134.39474196577453
20
-27.490402626193969
10
-124.84474196577455
20
-27.490402626193969
10
-124.84474196577455
20
-30.490402626194012
10
-114.8947419657745
20
-30.490402626194019
10
-114.8947419657745
20
-27.490402626193976
10
-105.34474196577452
20
-27.490402626193976
10
-105.34474196577452
20
-30.490402626194019
10
-95.394741965774614
20
-30.490402626194019
10
-95.394741965774614
20
-27.490402626193976
10
-85.844741965774574
20
-27.490402626193987
10
-85.844741965774489
20
-30.49040262619403
10
-75.8947419657745
20
-30.49040262619403
10
-75.894741965774571
20
-27.490402626193987
10
-66.344741965774588
20
-27.490402626193987
10
-66.344741965774588
20
-30.49040262619403
10
-56.394741965774514
20
-30.49040262619403
10
-56.394741965774514
20
-27.490402626193987
10
-46.844741965774489
20
-27.490402626193994
10
-46.844741965774489
20
-30.490402626194037
10
-36.894741965774521
20
-30.490402626194037
10
-36.894741965774514
20
-27.490402626193994
10
-27.344741965774535
20
-27.490402626193994
10
-27.344741965774539
20
-30.490402626194037
10
-18.5197419657745
20
-30.490402626194037
0
ENDSEC
0
SECTION
2
OBJECTS
0
DICTIONARY
5
C
100
AcDbDictionary
3
ACAD_GROUP
350
D
3
ACAD_MLINESTYLE
350
17
0
DICTIONARY
5
D
100
AcDbDictionary
0
DICTIONARY
5
1A
330
C
100
AcDbDictionary
0
DICTIONARY
5
17
100
AcDbDictionary
0
ENDSEC
0
EOF
