0
SECTION
2
HEADER
9
$INSUNITS
70
4
9
$ACADVER
1
AC1014
9
$HANDSEED
5
FFFF
0
ENDSEC
0
SECTION
2
TABLES
0
TABLE
2
VPORT
5
8
100
AcDbSymbolTable
0
ENDTAB
0
TABLE
2
LTYPE
5
5
100
AcDbSymbolTable
0
LTYPE
5
14
100
AcDbSymbolTableRecord
100
AcDbLinetypeTableRecord
2
BYBLOCK
70
0
0
LTYPE
5
15
100
AcDbSymbolTableRecord
100
AcDbLinetypeTableRecord
2
BYLAYER
70
0
0
ENDTAB
0
TABLE
2
LAYER
5
2
100
AcDbSymbolTable
70
2
0
LAYER
5
50
100
AcDbSymbolTableRecord
100
AcDbLayerTableRecord
2
0
70
0
6
CONTINUOUS
0
ENDTAB
0
TABLE
2
STYLE
5
3
100
AcDbSymbolTable
70
1
0
STYLE
5
11
100
AcDbSymbolTableRecord
100
AcDbTextStyleTableRecord
2
STANDARD
70
0
0
ENDTAB
0
TABLE
2
VIEW
5
6
100
AcDbSymbolTable
70
0
0
ENDTAB
0
TABLE
2
UCS
5
7
100
AcDbSymbolTable
70
0
0
ENDTAB
0
TABLE
2
APPID
5
9
100
AcDbSymbolTable
70
2
0
APPID
5
12
100
AcDbSymbolTableRecord
100
AcDbRegAppTableRecord
2
ACAD
70
0
0
ENDTAB
0
TABLE
2
DIMSTYLE
5
A
100
AcDbSymbolTable
70
1
0
ENDTAB
0
TABLE
2
BLOCK_RECORD
5
1
100
AcDbSymbolTable
70
1
0
BLOCK_RECORD
5
1F
100
AcDbSymbolTableRecord
100
AcDbBlockTableRecord
2
*MODEL_SPACE
0
BLOCK_RECORD
5
1B
100
AcDbSymbolTableRecord
100
AcDbBlockTableRecord
2
*PAPER_SPACE
0
ENDTAB
0
ENDSEC
0
SECTION
2
BLOCKS
0
BLOCK
5
20
100
AcDbEntity
100
AcDbBlockBegin
2
*MODEL_SPACE
0
ENDBLK
5
21
100
AcDbEntity
100
AcDbBlockEnd
0
BLOCK
5
1C
100
AcDbEntity
100
AcDbBlockBegin
2
*PAPER_SPACE
0
ENDBLK
5
1D
100
AcDbEntity
100
AcDbBlockEnd
0
ENDSEC
0
SECTION
2
ENTITIES
0
LWPOLYLINE
5
100
100
AcDbEntity
8
0
100
AcDbPolyline
90
68
70
1
43
0.0
10
-77.041796466288858
20
-18.719741965774574
10
-81.666796466289
20
-18.719741965774578
10
-81.666796466289
20
-27.344741965774581
10
-84.666796466289043
20
-27.344741965774581
10
-84.666796466289043
20
-15.719741965774578
10
-103.26679646628897
20
-15.719741965774578
10
-103.26679646628897
20
-165.91974196577456
10
-84.666796466289043
20
-165.91974196577456
10
-84.666796466289043
20
-154.29474196577456
10
-81.666796466289
20
-154.29474196577456
10
-81.666796466289
20
-162.91974196577459
10
-77.241796466289045
20
-162.91974196577459
10
-77.241796466289045
20
-165.7197419657746
10
-67.291796466289
20
-165.7197419657746
10
-67.291796466289
20
-162.91974196577459
10
-69.516796466288966
20
-162.91974196577459
10
-69.516796466288966
20
-154.29474196577456
10
-66.516796466288994
20
-154.29474196577456
10
-66.516796466288994
20
-162.91974196577459
10
-57.741796466289017
20
-162.91974196577459
10
-57.741796466289017
20
-165.91974196577456
10
-47.791796466289043
20
-165.91974196577456
10
-47.791796466289043
20
-162.91974196577459
10
-38.241796466288989
20
-162.91974196577459
10
-38.241796466288989
20
-165.91974196577456
10
-28.291796466289085
20
-165.91974196577456
10
-28.291796466289085
20
-162.91974196577459
10
-19.516796466288966
20
-162.91974196577459
10
-19.516796466288966
20
-154.29474196577456
10
-16.516796466288994
20
-154.29474196577456
10
-16.516796466288994
20
-162.91974196577459
10
-18.741796466289102
20
-162.91974196577459
10
-18.741796466289102
20
-165.91974196577456
10
-8.7917964662890569
20
-165.91974196577456
10
-8.7917964662890569
20
-162.91974196577459
10
-4.3667964662891023
20
-162.91974196577459
10
-4.3667964662891023
20
-154.29474196577456
10
-1.3667964662889887
20
-154.29474196577456
10
-1.3667964662889887
20
-165.91974196577456
10
17.233203533711148
20
-165.91974196577456
10
17.233203533711148
20
-15.719741965774574
10
-1.3667964662889887
20
-15.719741965774578
10
-1.3667964662889887
20
-27.344741965774581
10
-4.3667964662891023
20
-27.344741965774581
10
-4.3667964662891023
20
-18.719741965774578
10
-8.991796466288875
20
-18.719741965774574
10
-8.9917964662888732
20
-15.719741965774572
10
-18.541796466288961
20
-15.719741965774572
10
-18.541796466288964
20
-18.719741965774574
10
-16.516796466288994
20
-18.719741965774578
10
-16.516796466288994
20
-27.344741965774574
10
-19.516796466288966
20
-27.344741965774574
10
-19.516796466288966
20
-18.719741965774578
10
-28.491796466288832
20
-18.719741965774574
10
-28.491796466288832
20
-15.719741965774572
10
-38.041796466288844
20
-15.719741965774572
10
-38.041796466288844
20
-18.719741965774574
10
-47.991796466288854
20
-18.719741965774574
10
-47.991796466288854
20
-15.719741965774572
10
-57.541796466288886
20
-15.719741965774572
10
-57.541796466288886
20
-18.719741965774574
10
-66.516796466288994
20
-18.719741965774581
10
-66.516796466288994
20
-27.344741965774574
10
-69.516796466288966
20
-27.344741965774574
10
-69.516796466288966
20
-18.719741965774578
10
-67.491796466288832
20
-18.719741965774574
10
-67.491796466288832
20
-15.719741965774572
10
-77.041796466288858
20
-15.719741965774572
0
LWPOLYLINE
5
101
100
AcDbEntity
8
0
100
AcDbPolyline
90
4
70
1
43
0.0
10
-81.666796466289
20
-46.844741965774581
10
-84.666796466289043
20
-46.844741965774581
10
-84.666796466289043
20
-37.294741965774591
10
-81.666796466289
20
-37.294741965774591
0
LWPOLYLINE
5
102
100
AcDbEntity
8
0
100
AcDbPolyline
90
4
70
1
43
0.0
10
-19.516796466288966
20
-105.34474196577456
10
-19.516796466288966
20
-95.794741965774591
10
-16.516796466288994
20
-95.794741965774577
10
-16.516796466288994
20
-105.34474196577456
0
LWPOLYLINE
5
103
100
AcDbEntity
8
0
100
AcDbPolyline
90
4
70
1
43
0.0
10
-81.666796466289
20
-144.34474196577457
10
-84.666796466289043
20
-144.34474196577457
10
-84.666796466289043
20
-134.79474196577459
10
-81.666796466289
20
-134.79474196577459
0
LWPOLYLINE
5
104
100
AcDbEntity
8
0
100
AcDbPolyline
90
4
70
1
43
0.0
10
-1.3667964662889887
20
-144.34474196577457
10
-4.3667964662891023
20
-144.34474196577457
10
-4.3667964662891023
20
-134.79474196577459
10
-1.3667964662889887
20
-134.79474196577459
0
LWPOLYLINE
5
105
100
AcDbEntity
8
0
100
AcDbPolyline
90
4
70
1
43
0.0
10
-1.3667964662889887
20
-46.844741965774581
10
-4.3667964662891023
20
-46.844741965774581
10
-4.3667964662891023
20
-37.294741965774591
10
-1.3667964662889887
20
-37.294741965774591
0
LWPOLYLINE
5
106
100
AcDbEntity
8
0
100
AcDbPolyline
90
4
70
1
43
0.0
10
-4.3667964662891023
20
-115.29474196577459
10
-1.3667964662889887
20
-115.29474196577459
10
-1.3667964662889887
20
-124.84474196577459
10
-4.3667964662891023
20
-124.84474196577459
0
LWPOLYLINE
5
107
100
AcDbEntity
8
0
100
AcDbPolyline
90
4
70
1
43
0.0
10
-1.3667964662889887
20
-105.34474196577457
10
-4.3667964662891023
20
-105.34474196577457
10
-4.3667964662891023
20
-95.794741965774577
10
-1.3667964662889887
20
-95.794741965774577
0
LWPOLYLINE
5
108
100
AcDbEntity
8
0
100
AcDbPolyline
90
4
70
1
43
0.0
10
-19.516796466288966
20
-144.34474196577457
10
-19.516796466288966
20
-134.79474196577459
10
-16.516796466288994
20
-134.79474196577459
10
-16.516796466288994
20
-144.34474196577457
0
LWPOLYLINE
5
109
100
AcDbEntity
8
0
100
AcDbPolyline
90
4
70
1
43
0.0
10
-66.516796466288994
20
-85.844741965774588
10
-69.516796466288966
20
-85.844741965774588
10
-69.516796466288966
20
-76.294741965774591
10
-66.516796466288994
20
-76.294741965774591
0
LWPOLYLINE
5
110
100
AcDbEntity
8
0
100
AcDbPolyline
90
4
70
1
43
0.0
10
-69.516796466288966
20
-66.344741965774574
10
-69.516796466288966
20
-56.794741965774591
10
-66.516796466288994
20
-56.794741965774591
10
-66.516796466288994
20
-66.344741965774574
0
LWPOLYLINE
5
111
100
AcDbEntity
8
0
100
AcDbPolyline
90
4
70
1
43
0.0
10
-66.516796466288994
20
-134.79474196577459
10
-66.516796466288994
20
-144.34474196577457
10
-69.516796466288966
20
-144.34474196577463
10
-69.516796466288966
20
-134.79474196577459
0
LWPOLYLINE
5
112
100
AcDbEntity
8
0
100
AcDbPolyline
90
4
70
1
43
0.0
10
-69.516796466288966
20
-37.294741965774591
10
-66.516796466288994
20
-37.294741965774591
10
-66.516796466288994
20
-46.844741965774581
10
-69.516796466288966
20
-46.844741965774581
0
LWPOLYLINE
5
113
100
AcDbEntity
8
0
100
AcDbPolyline
90
4
70
1
43
0.0
10
-84.666796466289043
20
-66.344741965774574
10
-84.666796466289043
20
-56.794741965774591
10
-81.666796466289
20
-56.794741965774591
10
-81.666796466289
20
-66.344741965774574
0
LWPOLYLINE
5
114
100
AcDbEntity
8
0
100
AcDbPolyline
90
4
70
1
43
0.0
10
-4.3667964662891023
20
-66.344741965774574
10
-4.3667964662891023
20
-56.794741965774591
10
-1.3667964662889887
20
-56.794741965774591
10
-1.3667964662889887
20
-66.344741965774574
0
LWPOLYLINE
5
115
100
AcDbEntity
8
0
100
AcDbPolyline
90
4
70
1
43
0.0
10
-19.516796466288966
20
-66.344741965774574
10
-19.516796466288966
20
-56.794741965774591
10
-16.516796466288994
20
-56.794741965774591
10
-16.516796466288994
20
-66.344741965774574
0
LWPOLYLINE
5
116
100
AcDbEntity
8
0
100
AcDbPolyline
90
4
70
1
43
0.0
10
-4.3667964662891023
20
-76.294741965774591
10
-1.3667964662889887
20
-76.294741965774591
10
-1.3667964662889887
20
-85.844741965774588
10
-4.3667964662891023
20
-85.844741965774588
0
LWPOLYLINE
5
117
100
AcDbEntity
8
0
100
AcDbPolyline
90
4
70
1
43
0.0
10
-19.516796466288966
20
-85.844741965774588
10
-19.516796466288966
20
-76.294741965774591
10
-16.516796466288994
20
-76.294741965774591
10
-16.516796466288994
20
-85.844741965774588
0
LWPOLYLINE
5
118
100
AcDbEntity
8
0
100
AcDbPolyline
90
4
70
1
43
0.0
10
-69.516796466288966
20
-115.29474196577459
10
-66.516796466288994
20
-115.29474196577459
10
-66.516796466288994
20
-124.84474196577459
10
-69.516796466288966
20
-124.84474196577459
0
LWPOLYLINE
5
119
100
AcDbEntity
8
0
100
AcDbPolyline
90
4
70
1
43
0.0
10
-19.516796466288966
20
-37.294741965774591
10
-16.516796466288994
20
-37.294741965774591
10
-16.516796466288994
20
-46.844741965774581
10
-19.516796466288966
20
-46.844741965774581
0
LWPOLYLINE
5
120
100
AcDbEntity
8
0
100
AcDbPolyline
90
4
70
1
43
0.0
10
-69.516796466288966
20
-105.34474196577462
10
-69.516796466288966
20
-95.794741965774591
10
-66.516796466288994
20
-95.794741965774577
10
-66.516796466288994
20
-105.34474196577457
0
LWPOLYLINE
5
121
100
AcDbEntity
8
0
100
AcDbPolyline
90
4
70
1
43
0.0
10
-16.516796466288994
20
-115.29474196577459
10
-16.516796466288994
20
-124.84474196577459
10
-19.516796466288966
20
-124.84474196577459
10
-19.516796466288966
20
-115.29474196577459
0
LWPOLYLINE
5
122
100
AcDbEntity
8
0
100
AcDbPolyline
90
4
70
1
43
0.0
10
-81.666796466289
20
-76.294741965774591
10
-81.666796466289
20
-85.844741965774588
10
-84.666796466289043
20
-85.844741965774588
10
-84.666796466289043
20
-76.294741965774591
0
LWPOLYLINE
5
123
100
AcDbEntity
8
0
100
AcDbPolyline
90
4
70
1
43
0.0
10
-84.666796466289043
20
-95.794741965774577
10
-81.666796466289
20
-95.794741965774577
10
-81.666796466289
20
-105.34474196577457
10
-84.666796466289043
20
-105.34474196577457
0
LWPOLYLINE
5
124
100
AcDbEntity
8
0
100
AcDbPolyline
90
4
70
1
43
0.0
10
-84.666796466289043
20
-124.84474196577459
10
-84.666796466289043
20
-115.29474196577459
10
-81.666796466289
20
-115.29474196577459
10
-81.666796466289
20
-124.84474196577459
0
ENDSEC
0
SECTION
2
OBJECTS
0
DICTIONARY
5
C
100
AcDbDictionary
3
ACAD_GROUP
350
D
3
ACAD_MLINESTYLE
350
17
0
DICTIONARY
5
D
100
AcDbDictionary
0
DICTIONARY
5
1A
330
C
100
AcDbDictionary
0
DICTIONARY
5
17
100
AcDbDictionary
0
ENDSEC
0
EOF
