0
SECTION
2
HEADER
9
$INSUNITS
70
4
9
$ACADVER
1
AC1014
9
$HANDSEED
5
FFFF
0
ENDSEC
0
SECTION
2
TABLES
0
TABLE
2
VPORT
5
8
100
AcDbSymbolTable
0
ENDTAB
0
TABLE
2
LTYPE
5
5
100
AcDbSymbolTable
0
LTYPE
5
14
100
AcDbSymbolTableRecord
100
AcDbLinetypeTableRecord
2
BYBLOCK
70
0
0
LTYPE
5
15
100
AcDbSymbolTableRecord
100
AcDbLinetypeTableRecord
2
BYLAYER
70
0
0
ENDTAB
0
TABLE
2
LAYER
5
2
100
AcDbSymbolTable
70
2
0
LAYER
5
50
100
AcDbSymbolTableRecord
100
AcDbLayerTableRecord
2
0
70
0
6
CONTINUOUS
0
ENDTAB
0
TABLE
2
STYLE
5
3
100
AcDbSymbolTable
70
1
0
STYLE
5
11
100
AcDbSymbolTableRecord
100
AcDbTextStyleTableRecord
2
STANDARD
70
0
0
ENDTAB
0
TABLE
2
VIEW
5
6
100
AcDbSymbolTable
70
0
0
ENDTAB
0
TABLE
2
UCS
5
7
100
AcDbSymbolTable
70
0
0
ENDTAB
0
TABLE
2
APPID
5
9
100
AcDbSymbolTable
70
2
0
APPID
5
12
100
AcDbSymbolTableRecord
100
AcDbRegAppTableRecord
2
ACAD
70
0
0
ENDTAB
0
TABLE
2
DIMSTYLE
5
A
100
AcDbSymbolTable
70
1
0
ENDTAB
0
TABLE
2
BLOCK_RECORD
5
1
100
AcDbSymbolTable
70
1
0
BLOCK_RECORD
5
1F
100
AcDbSymbolTableRecord
100
AcDbBlockTableRecord
2
*MODEL_SPACE
0
BLOCK_RECORD
5
1B
100
AcDbSymbolTableRecord
100
AcDbBlockTableRecord
2
*PAPER_SPACE
0
ENDTAB
0
ENDSEC
0
SECTION
2
BLOCKS
0
BLOCK
5
20
100
AcDbEntity
100
AcDbBlockBegin
2
*MODEL_SPACE
0
ENDBLK
5
21
100
AcDbEntity
100
AcDbBlockEnd
0
BLOCK
5
1C
100
AcDbEntity
100
AcDbBlockBegin
2
*PAPER_SPACE
0
ENDBLK
5
1D
100
AcDbEntity
100
AcDbBlockEnd
0
ENDSEC
0
SECTION
2
ENTITIES
0
CIRCLE
5
100
100
AcDbEntity
8
0
100
AcDbCircle
10
37.866796466288719
20
50.00000074505806
30
0
40
2.5
210
-1.3406997492074123e-63
220
8.0951114220122508e-111
230
1
0
CIRCLE
5
101
100
AcDbEntity
8
0
100
AcDbCircle
10
47.866796466288719
20
50.00000074505806
30
0
40
2.5
210
-1.3406997492074123e-63
220
8.0951114220122508e-111
230
1
0
CIRCLE
5
102
100
AcDbEntity
8
0
100
AcDbCircle
10
27.866796466288719
20
50.00000074505806
30
0
40
2.5
210
-1.3406997492074123e-63
220
8.0951114220122508e-111
230
1
0
CIRCLE
5
103
100
AcDbEntity
8
0
100
AcDbCircle
10
57.866796466288719
20
50.00000074505806
30
0
40
2.5
210
-1.3406997492074123e-63
220
8.0951114220122508e-111
230
1
0
CIRCLE
5
104
100
AcDbEntity
8
0
100
AcDbCircle
10
21.36679646628874
20
32.434445748742078
30
0
40
2.4999999999999978
210
-1.3406997492074123e-63
220
8.0951114220122508e-111
230
1
0
CIRCLE
5
105
100
AcDbEntity
8
0
100
AcDbCircle
10
64.366796466288719
20
32.434445748742107
30
0
40
2.5
210
-1.3406997492074123e-63
220
8.0951114220122508e-111
230
1
0
LWPOLYLINE
5
106
100
AcDbEntity
8
0
100
AcDbPolyline
90
4
70
1
43
0.0
10
36.36679646628874
20
23.934445748742064
10
36.36679646628874
20
40.934445748742085
10
49.36679646628869
20
40.934445748742085
10
49.366796466288719
20
23.934445748742085
0
LWPOLYLINE
5
107
100
AcDbEntity
8
0
100
AcDbPolyline
90
4
70
1
43
0.0
10
19.516796466288895
20
-10.523654251257957
10
19.516796466288895
20
-20.073654251257899
10
16.516796466288817
20
-20.073654251257906
10
16.516796466288817
20
-10.523654251257959
0
CIRCLE
5
108
100
AcDbEntity
8
0
100
AcDbCircle
10
53.366796466288676
20
40.934445748742085
30
0
40
0.80000000000001847
210
-3.0189874454731115e-48
220
-2.4651903288156619e-32
230
1
0
LWPOLYLINE
5
109
100
AcDbEntity
8
0
100
AcDbPolyline
90
4
70
1
43
0.0
10
67.491796466288747
20
-3.1986542512580121
10
67.491796466288747
20
-0.19865425125793368
10
77.041796466288758
20
-0.19865425125793346
10
77.041796466288758
20
-3.1986542512579055
0
LWPOLYLINE
5
110
100
AcDbEntity
8
0
100
AcDbPolyline
90
4
70
1
43
0.0
10
38.041796466288815
20
-0.19865425125793346
10
38.041796466288815
20
-3.1986542512580121
10
28.491796466288726
20
-3.1986542512580121
10
28.491796466288726
20
-0.19865425125793368
0
CIRCLE
5
111
100
AcDbEntity
8
0
100
AcDbCircle
10
32.366796466288754
20
40.934445748742064
30
0
40
0.80000000000000071
210
2.4548346807957052e-48
220
-2.4651903288156619e-32
230
1
0
CIRCLE
5
112
100
AcDbEntity
8
0
100
AcDbCircle
10
32.366796466288754
20
28.434445748742085
30
0
40
0.79999999999998295
210
5.4738221262688167e-48
220
-6.7034987460370654e-64
230
1
0
LWPOLYLINE
5
113
100
AcDbEntity
8
0
100
AcDbPolyline
90
4
70
1
43
0.0
10
84.666796466288787
20
-20.073654251257906
10
81.666855943311873
20
-20.092544952693991
10
81.666796466288787
20
-10.523654251257817
10
84.666796466288787
20
-10.523654251257815
0
LWPOLYLINE
5
114
100
AcDbEntity
8
0
100
AcDbPolyline
90
4
70
1
43
0.0
10
-8.9332035337113247
20
-17.798654251257982
10
-8.9332035337113247
20
-12.798654251257984
10
-6.1332035337113133
20
-12.798654251257984
10
-6.1332035337113133
20
-17.798654251257982
0
LWPOLYLINE
5
115
100
AcDbEntity
8
0
100
AcDbPolyline
90
4
70
1
43
0.0
10
18.54179646628868
20
-3.1986542512580121
10
8.9917964662886973
20
-3.1986542512580121
10
8.9917964662886973
20
-0.19865425125793368
10
18.54179646628868
20
-0.19865425125793346
0
LWPOLYLINE
5
116
100
AcDbEntity
8
0
100
AcDbPolyline
90
4
70
1
43
0.0
10
47.991796466288825
20
-3.1986542512580121
10
47.991796466288825
20
-0.19865425125793368
10
57.541796466288737
20
-0.19865425125793318
10
57.541796466288737
20
-3.1986542512580112
0
LWPOLYLINE
5
117
100
AcDbEntity
8
0
100
AcDbPolyline
90
4
70
1
43
0.0
10
66.516796466288952
20
-10.523654251257815
10
69.516796466288966
20
-10.523654251257815
10
69.516796466288966
20
-20.092544952693991
10
66.516796466288952
20
-20.092544952693988
0
LWPOLYLINE
5
118
100
AcDbEntity
8
0
100
AcDbPolyline
90
4
70
1
43
0.0
10
4.3667964662887826
20
-20.073654251257906
10
1.36679646628874
20
-20.073654251257906
10
1.36679646628874
20
-10.523654251257959
10
4.3667964662887826
20
-10.523654251257957
0
LWPOLYLINE
5
119
100
AcDbEntity
8
0
100
AcDbPolyline
90
4
70
1
43
0.0
10
94.96679646628877
20
-12.798654251257878
10
94.96679646628877
20
-17.798654251257876
10
92.166796466288829
20
-17.798654251257876
10
92.166796466288829
20
-12.798654251257878
0
CIRCLE
5
120
100
AcDbEntity
8
0
100
AcDbCircle
10
53.366796466288697
20
28.434445748742085
30
0
40
0.80000000000000071
210
2.4548346807957052e-48
220
-2.4651903288156619e-32
230
1
0
LWPOLYLINE
5
121
100
AcDbEntity
8
0
100
AcDbPolyline
90
56
70
1
43
0.0
10
-14.233203533711301
20
60.001345748742089
10
-14.233203533711265
20
-0.19865425125786373
10
1.36679646628874
20
-0.19865425125793346
10
1.36679646628874
20
-3.1986542512579055
10
-17.233203533711308
20
-3.1986542512579055
10
-17.233203533711308
20
-27.398654251257991
10
1.36679646628874
20
-27.398654251257994
10
1.36679646628874
20
-30.398654251257966
10
8.9917964662888394
20
-30.398654251257966
10
8.9917964662888394
20
-27.398654251257994
10
18.541796466288893
20
-27.398654251257991
10
18.541796466288893
20
-30.398654251257962
10
28.491796466288761
20
-30.398654251257962
10
28.491796466288761
20
-27.398654251257991
10
38.041796466288815
20
-27.398654251257994
10
38.041796466288815
20
-30.398654251257966
10
47.991796466288825
20
-30.398654251257966
10
47.991796466288825
20
-27.398654251257994
10
57.541796466288844
20
-27.398654251257991
10
57.541796466288844
20
-30.398654251257962
10
67.491796466288747
20
-30.398654251257962
10
67.491796466288747
20
-27.398654251257991
10
77.041796466288801
20
-27.398654251257994
10
77.041796466288801
20
-30.398654251257966
10
84.666796466288787
20
-30.398654251257966
10
84.666796466288787
20
-27.398654251257994
10
103.26679646628882
20
-27.398654251257991
10
103.26679646628875
20
-3.1986542512579419
10
84.666796466288787
20
-3.198654251257941
10
84.666796466288787
20
-0.19865425125793368
10
100.26679646628862
20
-0.19865425125789798
10
100.26679646628864
20
60.00134574874204
10
94.281196466288776
20
60.001345748742082
10
94.281196466288776
20
57.001345748742068
10
85.114896466288755
20
57.001345748742068
10
85.114896466288755
20
60.001345748742082
10
75.548696466288675
20
60.001345748742082
10
75.548696466288675
20
57.001345748742068
10
66.382396466288668
20
57.001345748742068
10
66.382396466288668
20
60.001345748742082
10
56.81619646628873
20
60.001345748742082
10
56.81619646628873
20
57.001345748742068
10
47.649896466288681
20
57.001345748742089
10
47.649896466288681
20
60.001345748742096
10
38.0836964662887
20
60.001345748742096
10
38.0836964662887
20
57.001345748742089
10
28.91739646628869
20
57.001345748742082
10
28.91739646628869
20
60.001345748742089
10
19.351196466288734
20
60.001345748742089
10
19.351196466288734
20
57.001345748742082
10
10.184896466288684
20
57.001345748742082
10
10.184896466288684
20
60.001345748742089
10
0.61869646628867514
20
60.001345748742089
10
0.61869646628867514
20
57.001345748742082
10
-8.547603533711321
20
57.001345748742082
10
-8.547603533711321
20
60.001345748742089
0
ENDSEC
0
SECTION
2
OBJECTS
0
DICTIONARY
5
C
100
AcDbDictionary
3
ACAD_GROUP
350
D
3
ACAD_MLINESTYLE
350
17
0
DICTIONARY
5
D
100
AcDbDictionary
0
DICTIONARY
5
1A
330
C
100
AcDbDictionary
0
DICTIONARY
5
17
100
AcDbDictionary
0
ENDSEC
0
EOF
