0
SECTION
2
HEADER
9
$INSUNITS
70
4
9
$ACADVER
1
AC1014
9
$HANDSEED
5
FFFF
0
ENDSEC
0
SECTION
2
TABLES
0
TABLE
2
VPORT
5
8
100
AcDbSymbolTable
0
ENDTAB
0
TABLE
2
LTYPE
5
5
100
AcDbSymbolTable
0
LTYPE
5
14
100
AcDbSymbolTableRecord
100
AcDbLinetypeTableRecord
2
BYBLOCK
70
0
0
LTYPE
5
15
100
AcDbSymbolTableRecord
100
AcDbLinetypeTableRecord
2
BYLAYER
70
0
0
ENDTAB
0
TABLE
2
LAYER
5
2
100
AcDbSymbolTable
70
2
0
LAYER
5
50
100
AcDbSymbolTableRecord
100
AcDbLayerTableRecord
2
0
70
0
6
CONTINUOUS
0
ENDTAB
0
TABLE
2
STYLE
5
3
100
AcDbSymbolTable
70
1
0
STYLE
5
11
100
AcDbSymbolTableRecord
100
AcDbTextStyleTableRecord
2
STANDARD
70
0
0
ENDTAB
0
TABLE
2
VIEW
5
6
100
AcDbSymbolTable
70
0
0
ENDTAB
0
TABLE
2
UCS
5
7
100
AcDbSymbolTable
70
0
0
ENDTAB
0
TABLE
2
APPID
5
9
100
AcDbSymbolTable
70
2
0
APPID
5
12
100
AcDbSymbolTableRecord
100
AcDbRegAppTableRecord
2
ACAD
70
0
0
ENDTAB
0
TABLE
2
DIMSTYLE
5
A
100
AcDbSymbolTable
70
1
0
ENDTAB
0
TABLE
2
BLOCK_RECORD
5
1
100
AcDbSymbolTable
70
1
0
BLOCK_RECORD
5
1F
100
AcDbSymbolTableRecord
100
AcDbBlockTableRecord
2
*MODEL_SPACE
0
BLOCK_RECORD
5
1B
100
AcDbSymbolTableRecord
100
AcDbBlockTableRecord
2
*PAPER_SPACE
0
ENDTAB
0
ENDSEC
0
SECTION
2
BLOCKS
0
BLOCK
5
20
100
AcDbEntity
100
AcDbBlockBegin
2
*MODEL_SPACE
0
ENDBLK
5
21
100
AcDbEntity
100
AcDbBlockEnd
0
BLOCK
5
1C
100
AcDbEntity
100
AcDbBlockBegin
2
*PAPER_SPACE
0
ENDBLK
5
1D
100
AcDbEntity
100
AcDbBlockEnd
0
ENDSEC
0
SECTION
2
ENTITIES
0
LWPOLYLINE
5
100
100
AcDbEntity
8
0
100
AcDbPolyline
90
68
70
1
43
0.0
10
-18.719741965774567
20
-10.523654251257836
10
-18.719741965774546
20
-0.28095727547601257
10
-27.544741965774513
20
-0.28095727547601207
10
-27.544741965774513
20
-3.2809572754760548
10
-37.094741965774517
20
-3.2809572754760548
10
-37.094741965774517
20
-0.28095727547601201
10
-47.044741965774506
20
-0.28095727547601207
10
-47.044741965774506
20
-3.2809572754760548
10
-56.594741965774482
20
-3.2809572754760548
10
-56.594741965774482
20
-0.28095727547601201
10
-66.544741965774477
20
-0.28095727547601207
10
-66.544741965774477
20
-3.2809572754760548
10
-76.094741965774489
20
-3.2809572754760548
10
-76.094741965774489
20
-0.28095727547601201
10
-86.044741965774435
20
-0.28095727547601207
10
-86.044741965774435
20
-3.2809572754760548
10
-95.594741965774432
20
-3.2809572754760548
10
-95.594741965774432
20
-0.28095727547601201
10
-105.54474196577443
20
-0.28095727547601207
10
-105.54474196577443
20
-3.2809572754760548
10
-115.09474196577442
20
-3.2809572754760548
10
-115.09474196577442
20
-0.28095727547601201
10
-125.04474196577445
20
-0.28095727547601207
10
-125.04474196577445
20
-3.2809572754760548
10
-134.59474196577443
20
-3.2809572754760548
10
-134.59474196577443
20
-0.28095727547601201
10
-144.54474196577439
20
-0.28095727547601207
10
-144.54474196577439
20
-3.2809572754760548
10
-154.0947419657744
20
-3.2809572754759837
10
-154.0947419657744
20
-0.28095727547601201
10
-162.91974196577439
20
-0.28095727547601207
10
-162.91974196577439
20
-10.405957275475934
10
-165.91974196577439
20
-10.405957275475934
10
-165.91974196577439
20
-20.361049239063398
10
-162.91974196577439
20
-20.361049239063398
10
-162.91974196577439
20
-30.480957275476008
10
-154.0947419657744
20
-30.480957275476008
10
-154.0947419657744
20
-27.480957275475966
10
-144.54474196577442
20
-27.480957275475966
10
-144.54474196577442
20
-30.480957275476008
10
-134.59474196577443
20
-30.480957275476008
10
-134.59474196577443
20
-27.480957275475966
10
-125.04474196577445
20
-27.480957275475966
10
-125.04474196577445
20
-30.480957275476008
10
-115.09474196577442
20
-30.480957275476008
10
-115.09474196577442
20
-27.480957275476037
10
-105.54474196577443
20
-27.480957275476037
10
-105.54474196577443
20
-30.480957275476008
10
-95.59474196577446
20
-30.480957275476008
10
-95.59474196577446
20
-27.480957275476037
10
-86.044741965774435
20
-27.480957275476037
10
-86.044741965774435
20
-30.480957275476008
10
-76.094741965774489
20
-30.480957275476008
10
-76.094741965774489
20
-27.480957275476037
10
-66.544741965774477
20
-27.480957275476037
10
-66.544741965774477
20
-30.480957275476008
10
-56.594741965774482
20
-30.480957275476008
10
-56.594741965774482
20
-27.480957275476037
10
-47.044741965774506
20
-27.480957275476037
10
-47.044741965774506
20
-30.480957275476008
10
-37.094741965774517
20
-30.480957275476008
10
-37.094741965774517
20
-27.480957275476037
10
-27.544741965774513
20
-27.480957275476037
10
-27.544741965774513
20
-30.480957275476008
10
-18.719741965774546
20
-30.480957275476008
10
-18.719741965774571
20
-20.073654251257924
10
-15.719741965774571
20
-20.073654251257924
10
-15.719741965774567
20
-10.523654251257836
0
CIRCLE
5
101
100
AcDbEntity
8
0
100
AcDbCircle
10
-131.5697419657744
20
-6.5809572754760017
30
0
40
1.3499999999999979
210
0
220
-0
230
1
0
CIRCLE
5
102
100
AcDbEntity
8
0
100
AcDbCircle
10
-131.5697419657744
20
-24.180957275475912
30
0
40
1.3499999999999979
210
0
220
-0
230
1
0
CIRCLE
5
103
100
AcDbEntity
8
0
100
AcDbCircle
10
-151.41974196577439
20
-15.380957275475886
30
0
40
3.6750000000000149
210
0
220
-0
230
1
0
LWPOLYLINE
5
104
100
AcDbEntity
8
0
100
AcDbPolyline
90
8
70
1
43
0.0
10
-99.96974196577446
20
-22.380957275475843
10
-120.36974196577444
20
-22.380957275475879
42
-0.41421356237312396
10
-122.16974196577442
20
-20.580957275475917
10
-122.16974196577451
20
-10.180957275475997
42
-0.41421356237309648
10
-120.36974196577444
20
-8.3809572754759287
10
-99.96974196577446
20
-8.3809572754759802
42
-0.41421356237309248
10
-98.169741965774463
20
-10.180957275475997
10
-98.169741965774506
20
-20.580957275475917
42
-0.41421356237310225
0
CIRCLE
5
105
100
AcDbEntity
8
0
100
AcDbCircle
10
-50.069741965774483
20
-6.5809572754760017
30
0
40
1.3499999999999979
210
0
220
-0
230
1
0
CIRCLE
5
106
100
AcDbEntity
8
0
100
AcDbCircle
10
-50.069741965774483
20
-24.180957275476054
30
0
40
1.3499999999999979
210
0
220
-0
230
1
0
CIRCLE
5
107
100
AcDbEntity
8
0
100
AcDbCircle
10
-30.219741965774503
20
-15.380957275475957
30
0
40
3.6749999999999972
210
0
220
-2.4651903288156619e-32
230
1
0
LWPOLYLINE
5
108
100
AcDbEntity
8
0
100
AcDbPolyline
90
8
70
1
43
0.0
10
-83.469741965774404
20
-20.580957275475988
42
0.41421356237311169
10
-81.669741965774435
20
-22.380957275475982
10
-61.269741965774465
20
-22.380957275475993
42
0.41421356237310297
10
-59.469741965774467
20
-20.580957275476059
10
-59.469741965774539
20
-10.180957275475997
42
0.41421356237309503
10
-61.269741965774465
20
-8.3809572754760691
10
-81.669741965774435
20
-8.3809572754759998
42
0.41421356237309576
10
-83.469741965774432
20
-10.180957275475997
0
ENDSEC
0
SECTION
2
OBJECTS
0
DICTIONARY
5
C
100
AcDbDictionary
3
ACAD_GROUP
350
D
3
ACAD_MLINESTYLE
350
17
0
DICTIONARY
5
D
100
AcDbDictionary
0
DICTIONARY
5
1A
330
C
100
AcDbDictionary
0
DICTIONARY
5
17
100
AcDbDictionary
0
ENDSEC
0
EOF
