0
SECTION
2
HEADER
9
$INSUNITS
70
4
9
$ACADVER
1
AC1014
9
$HANDSEED
5
FFFF
0
ENDSEC
0
SECTION
2
TABLES
0
TABLE
2
VPORT
5
8
100
AcDbSymbolTable
0
ENDTAB
0
TABLE
2
LTYPE
5
5
100
AcDbSymbolTable
0
LTYPE
5
14
100
AcDbSymbolTableRecord
100
AcDbLinetypeTableRecord
2
BYBLOCK
70
0
0
LTYPE
5
15
100
AcDbSymbolTableRecord
100
AcDbLinetypeTableRecord
2
BYLAYER
70
0
0
ENDTAB
0
TABLE
2
LAYER
5
2
100
AcDbSymbolTable
70
2
0
LAYER
5
50
100
AcDbSymbolTableRecord
100
AcDbLayerTableRecord
2
0
70
0
6
CONTINUOUS
0
ENDTAB
0
TABLE
2
STYLE
5
3
100
AcDbSymbolTable
70
1
0
STYLE
5
11
100
AcDbSymbolTableRecord
100
AcDbTextStyleTableRecord
2
STANDARD
70
0
0
ENDTAB
0
TABLE
2
VIEW
5
6
100
AcDbSymbolTable
70
0
0
ENDTAB
0
TABLE
2
UCS
5
7
100
AcDbSymbolTable
70
0
0
ENDTAB
0
TABLE
2
APPID
5
9
100
AcDbSymbolTable
70
2
0
APPID
5
12
100
AcDbSymbolTableRecord
100
AcDbRegAppTableRecord
2
ACAD
70
0
0
ENDTAB
0
TABLE
2
DIMSTYLE
5
A
100
AcDbSymbolTable
70
1
0
ENDTAB
0
TABLE
2
BLOCK_RECORD
5
1
100
AcDbSymbolTable
70
1
0
BLOCK_RECORD
5
1F
100
AcDbSymbolTableRecord
100
AcDbBlockTableRecord
2
*MODEL_SPACE
0
BLOCK_RECORD
5
1B
100
AcDbSymbolTableRecord
100
AcDbBlockTableRecord
2
*PAPER_SPACE
0
ENDTAB
0
ENDSEC
0
SECTION
2
BLOCKS
0
BLOCK
5
20
100
AcDbEntity
100
AcDbBlockBegin
2
*MODEL_SPACE
0
ENDBLK
5
21
100
AcDbEntity
100
AcDbBlockEnd
0
BLOCK
5
1C
100
AcDbEntity
100
AcDbBlockBegin
2
*PAPER_SPACE
0
ENDBLK
5
1D
100
AcDbEntity
100
AcDbBlockEnd
0
ENDSEC
0
SECTION
2
ENTITIES
0
LWPOLYLINE
5
100
100
AcDbEntity
8
0
100
AcDbPolyline
90
38
70
1
43
0.0
10
-18.719741965774517
20
-0.28095727547602795
10
-18.719741965774517
20
34.988142724523946
10
-15.719741965774517
20
34.988142724523939
10
-15.719741965774517
20
43.968442724523946
10
-18.719741965774489
20
43.968442724523953
10
-18.719741965774489
20
53.134642724523935
10
-15.719741965774517
20
53.134642724523935
10
-15.719741965774517
20
59.919042724523955
10
-30.03914196577449
20
59.919042724523955
10
-30.03914196577449
20
56.919042724523948
10
-39.205341965774508
20
56.919042724523948
10
-39.205341965774508
20
59.919042724523955
10
-48.771641965774478
20
59.919042724523955
10
-48.771641965774471
20
56.919042724523948
10
-57.937841965774489
20
56.919042724523948
10
-57.937841965774489
20
59.919042724523955
10
-67.504141965774537
20
59.919042724523955
10
-67.504141965774537
20
56.919042724523948
10
-76.670341965774483
20
56.919042724523948
10
-76.670341965774483
20
59.919042724523955
10
-86.23664196577451
20
59.919042724523955
10
-86.236641965774524
20
56.919042724523948
10
-95.402841965774471
20
56.919042724523948
10
-95.402841965774471
20
59.919042724523955
10
-104.96914196577444
20
59.919042724523955
10
-104.96914196577444
20
56.919042724523948
10
-114.13534196577453
20
56.919042724523948
10
-114.13534196577453
20
59.919042724523955
10
-123.70164196577443
20
59.919042724523955
10
-123.70164196577443
20
56.919042724523948
10
-132.86784196577449
20
56.919042724523948
10
-132.86784196577449
20
59.919042724523955
10
-142.4341419657745
20
59.919042724523955
10
-142.4341419657745
20
56.919042724523948
10
-151.60034196577445
20
56.919042724523948
10
-151.60034196577445
20
59.919042724523955
10
-165.91974196577445
20
59.919042724523955
10
-165.91974196577442
20
-0.28095727547600369
0
ENDSEC
0
SECTION
2
OBJECTS
0
DICTIONARY
5
C
100
AcDbDictionary
3
ACAD_GROUP
350
D
3
ACAD_MLINESTYLE
350
17
0
DICTIONARY
5
D
100
AcDbDictionary
0
DICTIONARY
5
1A
330
C
100
AcDbDictionary
0
DICTIONARY
5
17
100
AcDbDictionary
0
ENDSEC
0
EOF
