0
SECTION
2
HEADER
9
$INSUNITS
70
4
9
$ACADVER
1
AC1014
9
$HANDSEED
5
FFFF
0
ENDSEC
0
SECTION
2
TABLES
0
TABLE
2
VPORT
5
8
100
AcDbSymbolTable
0
ENDTAB
0
TABLE
2
LTYPE
5
5
100
AcDbSymbolTable
0
LTYPE
5
14
100
AcDbSymbolTableRecord
100
AcDbLinetypeTableRecord
2
BYBLOCK
70
0
0
LTYPE
5
15
100
AcDbSymbolTableRecord
100
AcDbLinetypeTableRecord
2
BYLAYER
70
0
0
ENDTAB
0
TABLE
2
LAYER
5
2
100
AcDbSymbolTable
70
2
0
LAYER
5
50
100
AcDbSymbolTableRecord
100
AcDbLayerTableRecord
2
0
70
0
6
CONTINUOUS
0
ENDTAB
0
TABLE
2
STYLE
5
3
100
AcDbSymbolTable
70
1
0
STYLE
5
11
100
AcDbSymbolTableRecord
100
AcDbTextStyleTableRecord
2
STANDARD
70
0
0
ENDTAB
0
TABLE
2
VIEW
5
6
100
AcDbSymbolTable
70
0
0
ENDTAB
0
TABLE
2
UCS
5
7
100
AcDbSymbolTable
70
0
0
ENDTAB
0
TABLE
2
APPID
5
9
100
AcDbSymbolTable
70
2
0
APPID
5
12
100
AcDbSymbolTableRecord
100
AcDbRegAppTableRecord
2
ACAD
70
0
0
ENDTAB
0
TABLE
2
DIMSTYLE
5
A
100
AcDbSymbolTable
70
1
0
ENDTAB
0
TABLE
2
BLOCK_RECORD
5
1
100
AcDbSymbolTable
70
1
0
BLOCK_RECORD
5
1F
100
AcDbSymbolTableRecord
100
AcDbBlockTableRecord
2
*MODEL_SPACE
0
BLOCK_RECORD
5
1B
100
AcDbSymbolTableRecord
100
AcDbBlockTableRecord
2
*PAPER_SPACE
0
ENDTAB
0
ENDSEC
0
SECTION
2
BLOCKS
0
BLOCK
5
20
100
AcDbEntity
100
AcDbBlockBegin
2
*MODEL_SPACE
0
ENDBLK
5
21
100
AcDbEntity
100
AcDbBlockEnd
0
BLOCK
5
1C
100
AcDbEntity
100
AcDbBlockBegin
2
*PAPER_SPACE
0
ENDBLK
5
1D
100
AcDbEntity
100
AcDbBlockEnd
0
ENDSEC
0
SECTION
2
ENTITIES
0
LWPOLYLINE
5
100
100
AcDbEntity
8
0
100
AcDbPolyline
90
108
70
1
43
0.0
10
94.481196466288765
20
-18.719741965774634
10
94.481196466288765
20
-15.719741965774592
10
84.914896466288766
20
-15.719741965774592
10
84.914896466288766
20
-18.719741965774634
10
75.748696466288749
20
-18.719741965774634
10
75.748696466288749
20
-15.719741965774592
10
66.182396466288751
20
-15.719741965774592
10
66.182396466288751
20
-18.719741965774634
10
57.016196466288768
20
-18.719741965774634
10
57.016196466288768
20
-15.719741965774592
10
47.449896466288763
20
-15.719741965774592
10
47.449896466288763
20
-18.719741965774634
10
38.283696466288781
20
-18.719741965774634
10
38.283696466288774
20
-15.719741965774592
10
28.717396466288768
20
-15.719741965774592
10
28.717396466288768
20
-18.719741965774634
10
19.551196466288751
20
-18.719741965774634
10
19.551196466288751
20
-15.719741965774592
10
9.9848964662887809
20
-15.719741965774574
10
9.9848964662887809
20
-18.719741965774617
10
0.81869646628876414
20
-18.719741965774617
10
0.81869646628876458
20
-15.719741965774574
10
-8.7476035337112421
20
-15.719741965774574
10
-8.7476035337112421
20
-18.719741965774617
10
-14.233203533711226
20
-18.719741965774617
10
-14.233203533711226
20
-29.839141965774658
10
-17.233203533711304
20
-29.839141965774658
10
-17.233203533711304
20
-39.405341965774596
10
-14.233203533711226
20
-39.405341965774596
10
-14.233203533711226
20
-48.571641965774575
10
-17.233203533711304
20
-48.571641965774575
10
-17.233203533711304
20
-58.137841965774655
10
-14.233203533711226
20
-58.137841965774655
10
-14.233203533711226
20
-67.304141965774562
10
-17.233203533711304
20
-67.304141965774562
10
-17.233203533711304
20
-76.870341965774571
10
-14.233203533711226
20
-76.870341965774571
10
-14.233203533711226
20
-86.036641965774621
10
-17.233203533711304
20
-86.036641965774621
10
-17.233203533711304
20
-95.602841965774559
10
-14.233203533711226
20
-95.602841965774559
10
-14.233203533711226
20
-104.76914196577468
10
-17.233203533711304
20
-104.76914196577468
10
-17.233203533711304
20
-114.33534196577469
10
-14.233203533711226
20
-114.33534196577469
10
-14.233203533711261
20
-123.5016419657746
10
-17.233203533711304
20
-123.5016419657746
10
-17.233203533711304
20
-133.06784196577462
10
-14.233203533711261
20
-133.06784196577462
10
-14.233203533711261
20
-142.2341419657746
10
-17.233203533711304
20
-142.2341419657746
10
-17.233203533711304
20
-151.80034196577458
10
-14.233203533711261
20
-151.80034196577458
10
-14.233203533711261
20
-162.91974196577462
10
-8.7476035337112776
20
-162.91974196577462
10
-8.7476035337112776
20
-165.91974196577462
10
0.81869646628872861
20
-165.91974196577462
10
0.81869646628872905
20
-162.91974196577462
10
9.9848964662887454
20
-162.91974196577462
10
9.9848964662887454
20
-165.91974196577462
10
19.551196466288715
20
-165.91974196577462
10
19.551196466288715
20
-162.91974196577462
10
28.717396466288733
20
-162.91974196577462
10
28.717396466288733
20
-165.91974196577462
10
38.283696466288738
20
-165.91974196577462
10
38.283696466288738
20
-162.91974196577462
10
47.44989646628872
20
-162.91974196577462
10
47.449896466288727
20
-165.91974196577462
10
57.016196466288733
20
-165.91974196577462
10
57.016196466288733
20
-162.91974196577462
10
66.182396466288708
20
-162.91974196577468
10
66.182396466288708
20
-165.91974196577465
10
75.74869646628872
20
-165.91974196577465
10
75.74869646628872
20
-162.91974196577468
10
84.914896466288752
20
-162.91974196577468
10
84.914896466288724
20
-165.91974196577465
10
94.481196466288736
20
-165.91974196577465
10
94.481196466288736
20
-162.91974196577468
10
99.966796466288713
20
-162.91974196577468
10
99.966796466288713
20
-151.80034196577463
10
102.96679646628873
20
-151.80034196577463
10
102.96679646628873
20
-142.23414196577463
10
99.966796466288713
20
-142.23414196577463
10
99.966796466288713
20
-133.06784196577465
10
102.96679646628873
20
-133.06784196577465
10
102.96679646628873
20
-123.50164196577464
10
99.966796466288713
20
-123.50164196577464
10
99.966796466288756
20
-114.33534196577472
10
102.96679646628876
20
-114.33534196577472
10
102.96679646628876
20
-104.76914196577471
10
99.966796466288756
20
-104.76914196577471
10
99.966796466288756
20
-95.602841965774587
10
102.96679646628876
20
-95.602841965774587
10
102.96679646628876
20
-86.036641965774663
10
99.966796466288756
20
-86.036641965774663
10
99.966796466288756
20
-76.8703419657746
10
102.96679646628876
20
-76.8703419657746
10
102.96679646628876
20
-67.304141965774591
10
99.966796466288756
20
-67.304141965774591
10
99.966796466288756
20
-58.13784196577469
10
102.96679646628876
20
-58.13784196577469
10
102.96679646628876
20
-48.57164196577461
10
99.966796466288756
20
-48.57164196577461
10
99.966796466288756
20
-39.405341965774632
10
102.96679646628876
20
-39.405341965774632
10
102.96679646628876
20
-29.839141965774694
10
99.966796466288756
20
-29.839141965774694
10
99.966796466288756
20
-18.719741965774652
0
ENDSEC
0
SECTION
2
OBJECTS
0
DICTIONARY
5
C
100
AcDbDictionary
3
ACAD_GROUP
350
D
3
ACAD_MLINESTYLE
350
17
0
DICTIONARY
5
D
100
AcDbDictionary
0
DICTIONARY
5
1A
330
C
100
AcDbDictionary
0
DICTIONARY
5
17
100
AcDbDictionary
0
ENDSEC
0
EOF
